<svg id="Layer_1" data-name="Layer 1" xmlns="http://www.w3.org/2000/svg" viewBox="0 0 89.97 135.99"><defs><style>.cls-1{fill:#f5f5f5;}.cls-2{fill:none;stroke:#868686;stroke-linecap:round;stroke-linejoin:round;stroke-width:0.35px;}.cls-3{font-size:15.22px;fill:#585857;font-family:Montserrat-Light, Montserrat;font-weight:300;}</style></defs><title>AGO</title><path class="cls-1" d="M0,45.94V134a1.07,1.07,0,0,0,1.13,1H18.59c1.41,0,2.38,0,2.9-1.34.6-1.51.6-4.71.6-7.14V21.37a1.76,1.76,0,0,1,.05-.65.84.84,0,0,1,.29-.41v0L.32.3A1,1,0,0,0,0,1Z"/><path class="cls-1" d="M88.46,0H1.13A1.21,1.21,0,0,0,.32.3l22.1,20v0a1.18,1.18,0,0,1,.67-.3s.38,0,.69,0h64a.06.06,0,0,1,0,0h.31l.19-.05.21-.05.22-.09.19-.11a2.4,2.4,0,0,0,.37-.25,1.83,1.83,0,0,0,.3-.33.82.82,0,0,0,.11-.17l.1-.18c0-.06,0-.13.08-.19s0-.07,0-.09a.32.32,0,0,1,0-.09.31.31,0,0,1,0-.1v-.08a.08.08,0,0,0,0-.06V1.75h0v-.3a.44.44,0,0,1,0-.15,1,1,0,0,1,0-.17,1.29,1.29,0,0,0-.07-.31.45.45,0,0,0,0-.16.5.5,0,0,1,0-.13l0-.12s0-.07-.05-.1a.93.93,0,0,0,0-.1s0,0,0,0,0,0,0,0l0,0,0,0h0a0,0,0,0,0,0,0s0,0,0,0h-.06V0h-1Z"/><path class="cls-1" d="M90,94.32V18.12a.08.08,0,0,1,0,.06v.08a.31.31,0,0,0,0,.1.32.32,0,0,0,0,.09s0,.07,0,.09,0,.13-.08.19l-.1.18a.82.82,0,0,1-.11.17,1.83,1.83,0,0,1-.3.33,2.4,2.4,0,0,1-.37.25l-.19.11-.22.09-.21.05-.19.05h-.31a.06.06,0,0,0,0,0h-64c-.31,0-.64,0-.69,0a1.18,1.18,0,0,0-.67.3.84.84,0,0,0-.29.41,1.76,1.76,0,0,0-.05.65V133.81a.78.78,0,0,0,.15.47,1.49,1.49,0,0,0,.76.58l.18.07a3.5,3.5,0,0,0,.8.09l.21,0,1,0,4.16.2c1.91.09,3.85.16,5.78.23s3.79.14,5.67.19l7,.15,2.32,0,4.55,0h9.44c2.08,0,4.17-.09,6.27-.15,3.85-.08,7.68-.22,11.53-.4l3.82-.17,1.92-.1a1.06,1.06,0,0,0,.26,0h.16a3.84,3.84,0,0,0,.65-.08,1.7,1.7,0,0,0,.8-.41,1,1,0,0,0,.37-.81V94.32Z"/><line class="cls-2" x1="22.42" y1="20.29" x2="0.32" y2="0.3"/><path class="cls-2" d="M90,14.14v4a.08.08,0,0,1,0,.06v.08a.31.31,0,0,0,0,.1.32.32,0,0,0,0,.09s0,.07,0,.09,0,.13-.08.19l-.1.18a.82.82,0,0,1-.11.17,1.83,1.83,0,0,1-.3.33,2.4,2.4,0,0,1-.37.25l-.19.11-.22.09-.21.05-.19.05h-.31a.06.06,0,0,0,0,0h-6.4"/><path class="cls-2" d="M90,14.14V1.75h0v-.3a.44.44,0,0,1,0-.15,1,1,0,0,1,0-.17,1.29,1.29,0,0,0-.07-.31.45.45,0,0,0,0-.16.5.5,0,0,1,0-.13l0-.12s0-.07-.05-.1a.93.93,0,0,0,0-.1s0,0,0,0,0,0,0,0l0,0,0,0h0a0,0,0,0,0,0,0s0,0,0,0h-.06V0H55.19"/><path class="cls-2" d="M23.05,0H1.13A1.21,1.21,0,0,0,.32.3,1,1,0,0,0,0,1V45.94"/><line class="cls-2" x1="81.36" y1="20" x2="30.82" y2="20.01"/><path class="cls-2" d="M23.05,0H55.19"/><path class="cls-2" d="M22.09,126.51v7.3a.78.78,0,0,0,.15.47,1.49,1.49,0,0,0,.76.58l.18.07a3.5,3.5,0,0,0,.8.09l.21,0,1,0,4.16.2c1.91.09,3.85.16,5.78.23s3.79.14,5.67.19l7,.15,2.32,0,4.55,0h8.79"/><path class="cls-2" d="M30.82,20h-7c-.31,0-.64,0-.69,0a1.18,1.18,0,0,0-.67.3.84.84,0,0,0-.29.41,1.76,1.76,0,0,0-.05.65V58.83"/><path class="cls-2" d="M90,18.12V133.79a1,1,0,0,1-.37.81,1.7,1.7,0,0,1-.8.41,3.84,3.84,0,0,1-.65.08H88a1.06,1.06,0,0,1-.26,0l-1.92.1-3.82.17c-3.85.18-7.68.32-11.53.4-2.1.06-4.19.12-6.27.15H61.85l-4.54.05H49.47"/><path class="cls-2" d="M17.92,135h0"/><path class="cls-2" d="M0,45.94V134a1.07,1.07,0,0,0,1.13,1H17.88"/><path class="cls-2" d="M22.09,58.83v67.68"/><path class="cls-2" d="M22.09,126.51c0,2.43,0,5.63-.6,7.14C21,135,20,135,18.59,135"/><polyline class="cls-2" points="17.92 134.99 18.59 134.99 23.18 134.99"/><text class="cls-3" transform="translate(45.38 66.82)">80</text></svg>