<svg id="Layer_1" data-name="Layer 1" xmlns="http://www.w3.org/2000/svg" viewBox="0 0 93 93.07"><defs><style>.cls-1{fill:#f5f5f5;}.cls-2{fill:none;stroke:#868686;stroke-linecap:round;stroke-linejoin:round;stroke-width:0.35px;}.cls-3{font-size:15.22px;fill:#585857;font-family:Montserrat-Light, Montserrat;font-weight:300;}</style></defs><title>AGO</title><path class="cls-1" d="M36.33,93.07h-35A1.3,1.3,0,0,1,0,92a2.27,2.27,0,0,1,0-.45V19.58a.06.06,0,0,0,0,0v.06a.15.15,0,0,0,0,.09.34.34,0,0,0,0,.11s0,.08,0,.11a.54.54,0,0,0,0,.1,1.52,1.52,0,0,0,.06.2,2,2,0,0,0,.09.2l.12.19A1.42,1.42,0,0,0,.65,21a1.07,1.07,0,0,0,.35.29.94.94,0,0,0,.18.12l.2.09a1,1,0,0,0,.21.07,1,1,0,0,0,.2.06h.09a.22.22,0,0,1,.11,0H70.4a1.07,1.07,0,0,1,.76.32,1,1,0,0,1,.32.76V90.89h0v0h0v.17a.41.41,0,0,1,0,.11s0,.06,0,.09,0,.13,0,.19,0,.14.08.2a2,2,0,0,0,.09.2c0,.06.08.12.11.18a2,2,0,0,0,.28.35,1.76,1.76,0,0,0,.37.29.87.87,0,0,0,.18.11,1.2,1.2,0,0,0,.21.09.8.8,0,0,0,.2.07.45.45,0,0,0,.11,0l.1,0h.11a.15.15,0,0,0,.09,0H36.33Z"/><path class="cls-1" d="M73.6,93.07h0Z"/><path class="cls-1" d="M73.63,93.07h0Z"/><path class="cls-1" d="M80.57,93.07H73.48a.15.15,0,0,1-.09,0h-.11l-.1,0a.45.45,0,0,1-.11,0,.8.8,0,0,1-.2-.07,1.2,1.2,0,0,1-.21-.09.87.87,0,0,1-.18-.11,1.76,1.76,0,0,1-.37-.29,2,2,0,0,1-.28-.35c0-.06-.08-.12-.11-.18a2,2,0,0,1-.09-.2c0-.06,0-.13-.08-.2s0-.13,0-.19,0-.06,0-.09a.41.41,0,0,0,0-.11v-.17h0v0h0V22.77a1,1,0,0,0-.32-.76L92.68.32a1,1,0,0,1,.32.76V91.74A1,1,0,0,1,93,92a.84.84,0,0,1-.07.24,1.45,1.45,0,0,1-.12.25.93.93,0,0,1-.19.21,1.54,1.54,0,0,1-.19.17,1,1,0,0,1-.25.12.8.8,0,0,1-.24.07l-.24,0H80.57Z"/><path class="cls-1" d="M92.68.32,71.16,22a1.07,1.07,0,0,0-.76-.32H2a.22.22,0,0,0-.11,0H1.79a1,1,0,0,1-.2-.06,1,1,0,0,1-.21-.07l-.2-.09A.94.94,0,0,1,1,21.32,1.07,1.07,0,0,1,.65,21a1.42,1.42,0,0,1-.29-.35l-.12-.19a2,2,0,0,1-.09-.2,1.52,1.52,0,0,1-.06-.2.54.54,0,0,1,0-.1s0-.08,0-.11a.34.34,0,0,1,0-.11.15.15,0,0,1,0-.09v-.06a.06.06,0,0,1,0,0V2.34A6.83,6.83,0,0,1,.15.59,1,1,0,0,1,.42.06.25.25,0,0,1,.6,0H91.92A1.06,1.06,0,0,1,92.68.32Z"/><path class="cls-2" d="M93,1.08a1,1,0,0,0-.32-.76A1.06,1.06,0,0,0,91.92,0"/><path class="cls-2" d="M71.48,22.77a1,1,0,0,0-.32-.76,1.07,1.07,0,0,0-.76-.32"/><line class="cls-2" x1="71.16" y1="22.01" x2="92.68" y2="0.32"/><line class="cls-2" x1="93" y1="6.47" x2="93" y2="1.08"/><line class="cls-2" x1="86.54" y1="0.01" x2="91.92"/><line class="cls-2" x1="71.48" y1="22.77" x2="71.48" y2="23.72"/><line class="cls-2" x1="70.4" y1="21.69" x2="69.44" y2="21.69"/><path class="cls-2" d="M89.38,93.07h2.3l.24,0a.8.8,0,0,0,.24-.07,1,1,0,0,0,.25-.12,1.54,1.54,0,0,0,.19-.17.93.93,0,0,0,.19-.21,1.45,1.45,0,0,0,.12-.25A.84.84,0,0,0,93,92a1,1,0,0,0,0-.24V71.84"/><path class="cls-2" d="M73.18,93.07h.42"/><path class="cls-2" d="M0,19.58v72A2.27,2.27,0,0,0,0,92a1.3,1.3,0,0,0,1.3,1.09H72.19"/><path class="cls-2" d="M86.54,0H.6a.25.25,0,0,0-.18,0A1,1,0,0,0,.15.59,6.83,6.83,0,0,0,0,2.34V4.08"/><path class="cls-2" d="M93,71.48v-65"/><path class="cls-2" d="M8.32,21.69H2a.22.22,0,0,0-.11,0H1.79a1,1,0,0,1-.2-.06,1,1,0,0,1-.21-.07l-.2-.09A.94.94,0,0,1,1,21.32,1.07,1.07,0,0,1,.65,21a1.42,1.42,0,0,1-.29-.35l-.12-.19a2,2,0,0,1-.09-.2,1.52,1.52,0,0,1-.06-.2.54.54,0,0,1,0-.1s0-.08,0-.11a.34.34,0,0,1,0-.11.15.15,0,0,1,0-.09v-.06a.06.06,0,0,1,0,0V4.08"/><line class="cls-2" x1="69.44" y1="21.69" x2="8.32" y2="21.69"/><line class="cls-2" x1="71.48" y1="85.07" x2="71.48" y2="23.72"/><path class="cls-2" d="M73.48,93.06a.15.15,0,0,1-.09,0h-.11l-.1,0a.45.45,0,0,1-.11,0,.8.8,0,0,1-.2-.07,1.2,1.2,0,0,1-.21-.09.87.87,0,0,1-.18-.11,1.76,1.76,0,0,1-.37-.29,2,2,0,0,1-.28-.35c0-.06-.08-.12-.11-.18a2,2,0,0,1-.09-.2c0-.06,0-.13-.08-.2s0-.13,0-.19,0-.06,0-.09a.41.41,0,0,0,0-.11v-.17h0v0h0V85.07"/><path class="cls-2" d="M80.42,93.07H73.59"/><path class="cls-2" d="M89.38,93.07H80.57"/><path class="cls-2" d="M80.57,93.07H72.19"/><text class="cls-3" transform="translate(21.58 66.73)">RC</text></svg>