<svg id="Layer_1" data-name="Layer 1" xmlns="http://www.w3.org/2000/svg" viewBox="0 0 105 136.01"><defs><style>.cls-1{fill:#f5f5f5;}.cls-2{fill:none;stroke:#868686;stroke-linecap:round;stroke-linejoin:round;stroke-width:0.35px;}.cls-3{font-size:15.22px;fill:#585857;font-family:Montserrat-Light, Montserrat;font-weight:300;}</style></defs><title>AGO</title><path class="cls-1" d="M4.33,20H2l-.11,0-.21,0a1,1,0,0,1-.21-.07.45.45,0,0,1-.2-.09.82.82,0,0,1-.19-.09,2.33,2.33,0,0,1-.38-.26,2.15,2.15,0,0,1-.29-.32,1.2,1.2,0,0,1-.11-.17.5.5,0,0,1-.1-.19l-.08-.18s0-.07,0-.1a.38.38,0,0,1,0-.1s0-.05,0-.08a.34.34,0,0,0,0-.1V133.79a1,1,0,0,0,.35.81,2,2,0,0,0,.82.4,2.83,2.83,0,0,0,.65.09h.42l1.9.09c1.28.07,2.55.13,3.83.18,3.84.17,7.69.33,11.54.41,2.09.06,4.19.1,6.27.14l2.34,0,4.53,0c2.62,0,5.23,0,7.85,0h1.88c2.62,0,5.24,0,7.85,0l4.55,0,2.32,0c2.34,0,4.68-.09,7-.14,1.9-.05,3.8-.12,5.69-.19s3.85-.15,5.78-.24c1.38-.05,2.77-.12,4.15-.19l1-.06H81a3.07,3.07,0,0,0,.82-.11l.16-.06a1.44,1.44,0,0,0,.76-.58.85.85,0,0,0,.15-.48V21.35a1.75,1.75,0,0,0-.05-.64.89.89,0,0,0-.29-.42,1.27,1.27,0,0,0-.67-.28c-.11,0-1.17,0-1.27,0H4.33Z"/><path class="cls-1" d="M4.33,20H80.62c.1,0,1.16,0,1.27,0a1.27,1.27,0,0,1,.67.28l22.11-20a1.27,1.27,0,0,0-.83-.29H.51a0,0,0,0,0,0,0h0s0,0,0,0a0,0,0,0,0,0,0s0,0,0,0,0,0,0,0L.31.2l0,.08A.54.54,0,0,0,.22.39l0,.13a.28.28,0,0,0,0,.13A.78.78,0,0,0,.09.79C.07.9.05,1,0,1.11s0,.1,0,.16,0,.11,0,.17v.28H0V18H0v.16a.34.34,0,0,1,0,.1s0,.06,0,.08a.38.38,0,0,0,0,.1s0,.06,0,.1l.08.18a.5.5,0,0,0,.1.19,1.2,1.2,0,0,0,.11.17,2.15,2.15,0,0,0,.29.32,2.33,2.33,0,0,0,.38.26.82.82,0,0,0,.19.09.45.45,0,0,0,.2.09,1,1,0,0,0,.21.07l.21,0L2,20H4.33Z"/><path class="cls-1" d="M104.67.29l-22.11,20a.89.89,0,0,1,.29.42,1.75,1.75,0,0,1,.05.64V126.51c0,2.43,0,5.63.6,7.13S85.29,135,87.06,135h16.78a1.07,1.07,0,0,0,1.15-1V1A1,1,0,0,0,104.67.29Z"/><path class="cls-1" d="M82,134.92l-.16.06h5.23c-1.77,0-3,.17-3.56-1.34s-.6-4.7-.6-7.13v7.35a.85.85,0,0,1-.15.48A1.44,1.44,0,0,1,82,134.92Z"/><line class="cls-2" x1="82.56" y1="20.29" x2="104.67" y2="0.29"/><path class="cls-2" d="M0,18.16a.34.34,0,0,1,0,.1s0,.06,0,.08a.38.38,0,0,0,0,.1s0,.06,0,.1l.08.18a.5.5,0,0,0,.1.19,1.2,1.2,0,0,0,.11.17,2.15,2.15,0,0,0,.29.32,2.33,2.33,0,0,0,.38.26.82.82,0,0,0,.19.09.45.45,0,0,0,.2.09,1,1,0,0,0,.21.07l.21,0L2,20H8.62"/><path class="cls-2" d="M0,14.12V18H0v.12"/><path class="cls-2" d="M0,14.12V1.73H0V1.44c0-.06,0-.12,0-.17s0-.11,0-.16S.07.9.09.79A.78.78,0,0,1,.14.65a.28.28,0,0,1,0-.13l0-.13A.54.54,0,0,1,.27.28L.31.2l0-.05s0,0,0,0,0,0,0,0a0,0,0,0,1,0,0s0,0,0,0h0a0,0,0,0,1,0,0H49.8"/><path class="cls-2" d="M81.94,0h21.9a1.27,1.27,0,0,1,.83.29A1,1,0,0,1,105,1V45.93"/><line class="cls-2" x1="8.62" y1="19.98" x2="74.16" y2="19.99"/><path class="cls-2" d="M81.94,0H49.8"/><path class="cls-2" d="M82.9,126.51v7.35a.85.85,0,0,1-.15.48,1.44,1.44,0,0,1-.76.58l-.16.06a3.07,3.07,0,0,1-.82.11H80.8l-1,.06c-1.38.07-2.77.14-4.15.19-1.93.09-3.85.17-5.78.24s-3.79.14-5.69.19c-2.34,0-4.68.11-7,.14l-2.32,0-4.55,0c-2.61,0-5.23,0-7.85,0h-.94"/><path class="cls-2" d="M74.16,20h6.46c.1,0,1.16,0,1.27,0a1.27,1.27,0,0,1,.67.28.89.89,0,0,1,.29.42,1.75,1.75,0,0,1,.05.64V58.83"/><path class="cls-2" d="M41.45,136h-.94"/><path class="cls-2" d="M0,18.12V133.79a1,1,0,0,0,.35.81,2,2,0,0,0,.82.4,2.83,2.83,0,0,0,.65.09h.42l1.9.09c1.28.07,2.55.13,3.83.18,3.84.17,7.69.33,11.54.41,2.09.06,4.19.1,6.27.14l2.34,0,4.53,0c2.62,0,5.23,0,7.85,0"/><path class="cls-2" d="M87.06,135h0"/><path class="cls-2" d="M105,45.93V134a1.07,1.07,0,0,1-1.15,1H87.11"/><path class="cls-2" d="M82.9,58.83v67.68"/><path class="cls-2" d="M82.9,126.51c0,2.43,0,5.63.6,7.13S85.29,135,87.06,135"/><polyline class="cls-2" points="87.06 134.98 81.83 134.98 81.79 134.98"/><text class="cls-3" transform="translate(30.21 66.74)">100</text></svg>