<svg id="Layer_1" data-name="Layer 1" xmlns="http://www.w3.org/2000/svg" viewBox="0 0 85 93"><defs><style>.cls-1{fill:#f5f5f5;}.cls-2{fill:none;stroke:#868686;stroke-linecap:round;stroke-linejoin:round;stroke-width:0.35px;}.cls-3{font-size:15.22px;fill:#585857;font-family:Montserrat-Light, Montserrat;font-weight:300;}</style></defs><title>AGO</title><path class="cls-1" d="M85,90.56v.11a.9.9,0,0,1,0,.23,1.54,1.54,0,0,1-1,1,3.76,3.76,0,0,1-1.15.16l-.38,0-3,.15q-3.17.16-6.38.29l-5.14.2H67.7l-3.15.08-3.63.09h-.5c-.28,0-.58,0-.88,0-.58,0-1.15,0-1.73,0C53,93,48.25,93,43.46,93H41.53c-4.78,0-9.54,0-14.32-.08l-1.75,0c-.3,0-.59,0-.89,0h-.5l-3.61-.09-3.17-.08h-.23l-5.15-.2c-2.13-.08-4.25-.18-6.38-.29l-3-.15-.37,0A3.89,3.89,0,0,1,1,91.86a1.49,1.49,0,0,1-.95-1,1.81,1.81,0,0,1,0-.23V19.57a.15.15,0,0,1,0,.09.41.41,0,0,1,0,.11s0,.06,0,.09,0,.08,0,.11.05.13.09.19a.93.93,0,0,0,.1.2,1,1,0,0,0,.11.2,2.35,2.35,0,0,0,.3.33,2.82,2.82,0,0,0,.39.29l.2.11.21.09.2.06a.68.68,0,0,0,.22,0H2a.16.16,0,0,0,.1,0H82.88a.18.18,0,0,0,.1,0h.12a.63.63,0,0,0,.21,0l.22-.06.2-.09.22-.11a2.54,2.54,0,0,0,.36-.29,1.55,1.55,0,0,0,.3-.33,1.06,1.06,0,0,0,.12-.2.47.47,0,0,0,.1-.2.77.77,0,0,0,.08-.19.37.37,0,0,1,0-.11.28.28,0,0,1,0-.09s0-.08,0-.11a.15.15,0,0,1,0-.09v71Z"/><path class="cls-1" d="M85,19.53v0a.15.15,0,0,0,0,.09s0,.08,0,.11a.28.28,0,0,0,0,.09.37.37,0,0,0,0,.11.77.77,0,0,1-.08.19.47.47,0,0,1-.1.2,1.06,1.06,0,0,1-.12.2,1.55,1.55,0,0,1-.3.33,2.54,2.54,0,0,1-.36.29l-.22.11-.2.09-.22.06a.63.63,0,0,1-.21,0H83a.18.18,0,0,1-.1,0H2.12a.16.16,0,0,1-.1,0H1.9a.68.68,0,0,1-.22,0l-.2-.06-.21-.09-.2-.11a2.82,2.82,0,0,1-.39-.29,2.35,2.35,0,0,1-.3-.33,1,1,0,0,1-.11-.2.93.93,0,0,1-.1-.2C.13,20.1.12,20,.08,20s0-.06,0-.11,0-.06,0-.09a.41.41,0,0,0,0-.11.15.15,0,0,0,0-.09V19.4H0V1.89H0v0H0V1.72a.55.55,0,0,1,0-.18V1.37a1.09,1.09,0,0,0,0-.18A2.72,2.72,0,0,1,.1.86a1,1,0,0,1,0-.17.33.33,0,0,0,0-.14l0-.13A.54.54,0,0,1,.27.31a.31.31,0,0,1,0-.1s0,0,0,0a.09.09,0,0,1,0,0s0,0,0,0l0,0,0,0a0,0,0,0,1,0,0,0,0,0,0,1,0,0H.58V0H84.41V0h.09s0,0,0,0h0v0l0,0,0,0s0,0,0,0l0,0,0,.1s0,.08,0,.11l0,.13a.89.89,0,0,1,0,.14.53.53,0,0,1,0,.17,1.61,1.61,0,0,1,.06.33c0,.06,0,.12,0,.18a.52.52,0,0,0,0,.17v.31h0v0h0v17.5h0v.13Z"/><path class="cls-2" d="M0,3.52V1.89H0v0H0V1.72a.55.55,0,0,1,0-.18V1.37a1.09,1.09,0,0,0,0-.18A2.72,2.72,0,0,1,.1.86a1,1,0,0,1,0-.17.33.33,0,0,0,0-.14l0-.13A.54.54,0,0,1,.27.31a.31.31,0,0,1,0-.1s0,0,0,0a.09.09,0,0,1,0,0s0,0,0,0l0,0,0,0a0,0,0,0,1,0,0,0,0,0,0,1,0,0H.58V0H84.41V0h.09s0,0,0,0h0v0l0,0,0,0s0,0,0,0l0,0,0,.1s0,.08,0,.11l0,.13a.89.89,0,0,1,0,.14.53.53,0,0,1,0,.17,1.61,1.61,0,0,1,.06.33c0,.06,0,.12,0,.18a.52.52,0,0,0,0,.17v.31h0v0h0V3.52"/><path class="cls-2" d="M85,19.57v71.1a.9.9,0,0,1,0,.23,1.54,1.54,0,0,1-1,1,3.76,3.76,0,0,1-1.15.16l-.38,0-3,.15q-3.17.16-6.38.29l-5.14.2H67.7l-3.15.08-3.63.09h-.5c-.28,0-.58,0-.88,0-.58,0-1.15,0-1.73,0C53,93,48.25,93,43.46,93"/><path class="cls-2" d="M0,19.57v71.1a1.81,1.81,0,0,0,0,.23,1.49,1.49,0,0,0,1,1A3.89,3.89,0,0,0,2.15,92l.37,0,3,.15c2.13.11,4.25.21,6.38.29l5.15.2h.23l3.17.08,3.61.09h.5c.3,0,.59,0,.89,0l1.75,0C32,93,36.75,93,41.53,93h1.93"/><path class="cls-2" d="M0,3.52V19.39H0v.17a.15.15,0,0,1,0,.09.41.41,0,0,1,0,.11s0,.06,0,.09,0,.08,0,.11.05.13.09.19a.93.93,0,0,0,.1.2,1,1,0,0,0,.11.2,2.35,2.35,0,0,0,.3.33,2.82,2.82,0,0,0,.39.29l.2.11.21.09.2.06a.68.68,0,0,0,.22,0H2a.16.16,0,0,0,.1,0H82.88a.18.18,0,0,0,.1,0h.12a.63.63,0,0,0,.21,0l.22-.06.2-.09.22-.11a2.54,2.54,0,0,0,.36-.29,1.55,1.55,0,0,0,.3-.33,1.06,1.06,0,0,0,.12-.2.47.47,0,0,0,.1-.2.77.77,0,0,0,.08-.19.37.37,0,0,1,0-.11.28.28,0,0,1,0-.09s0-.08,0-.11a.15.15,0,0,1,0-.09V19.4h0V3.52"/><text class="cls-3" transform="translate(29.8 66.83)">100</text></svg>